<?xml version="1.0" standalone="no"?>
<!DOCTYPE svg PUBLIC "-//W3C//DTD SVG 20010904//EN"
 "http://www.w3.org/TR/2001/REC-SVG-20010904/DTD/svg10.dtd">
<svg version="1.0" xmlns="http://www.w3.org/2000/svg"
 width="207.000000pt" height="205.000000pt" viewBox="0 0 207.000000 205.000000"
 preserveAspectRatio="xMidYMid meet">

<g transform="translate(0.000000,205.000000) scale(0.100000,-0.100000)"
fill="#000000" stroke="none">
<path d="M942 1865 c-216 -61 -359 -168 -466 -346 -61 -103 -113 -243 -122
-329 -17 -155 55 -361 163 -465 42 -41 154 -101 221 -118 l50 -12 -37 -90
c-21 -50 -66 -146 -102 -215 -78 -152 -73 -140 -57 -140 24 0 136 209 199 371
l29 76 63 7 c97 11 183 35 297 84 146 62 183 81 312 166 147 97 187 131 172
146 -9 9 -22 3 -51 -24 -97 -87 -306 -207 -488 -279 -74 -30 -230 -67 -280
-67 -8 0 -7 18 6 68 58 231 60 390 4 369 -14 -6 -14 -9 1 -32 13 -20 15 -38 9
-93 -7 -71 -38 -224 -56 -281 -11 -32 -13 -33 -51 -27 -65 11 -177 73 -234
131 -83 86 -128 200 -140 355 -6 68 -3 86 31 189 92 283 273 456 553 531 74
20 91 21 150 12 76 -13 105 -31 147 -93 27 -39 30 -52 30 -119 -1 -103 -31
-165 -123 -252 -88 -83 -146 -112 -211 -106 -63 6 -141 44 -141 68 0 26 -15
33 -30 14 -33 -39 86 -113 182 -114 57 0 87 11 153 55 74 49 139 122 171 190
25 52 29 72 28 145 0 74 -4 91 -28 133 -35 59 -84 93 -155 107 -75 14 -104 12
-199 -15z"/>
<path d="M1586 1231 c-12 -19 4 -31 34 -24 36 7 39 -10 10 -47 -25 -32 -25
-42 4 -69 18 -17 33 -22 62 -19 37 3 39 5 42 40 2 20 -2 47 -8 59 -10 17 -9
23 1 30 18 11 4 23 -29 26 -15 1 -46 5 -68 9 -26 4 -44 2 -48 -5z m124 -108
c0 -18 -6 -23 -25 -23 -33 0 -42 24 -20 57 17 25 18 26 31 8 8 -10 14 -29 14
-42z"/>
<path d="M1428 1169 c-20 -11 -52 -114 -43 -138 4 -9 -7 -4 -23 12 -31 30 -51
23 -33 -12 9 -17 104 -91 116 -91 12 0 3 48 -14 77 -17 27 -18 37 -9 70 7 21
18 46 27 56 18 22 4 40 -21 26z"/>
<path d="M1136 1099 c-90 -79 -81 -134 34 -211 l25 -16 -32 -34 c-18 -19 -33
-37 -33 -41 0 -15 30 -6 59 19 35 29 41 66 14 88 -117 95 -116 93 -57 156 33
35 44 54 37 61 -7 7 -22 1 -47 -22z"/>
</g>
</svg>
